<svg xmlns="http://www.w3.org/2000/svg" width="125" height="125" viewBox="0 0 125 125"><rect width="100%" height="100%" fill="#000000"/><path fill="#F00" d="M29.31 63.75q.14 0 .24.11l.63.69q-.52.65-1.3 1-.77.35-1.85.35-.96 0-1.73-.33t-1.32-.92-.84-1.41q-.29-.81-.29-1.78 0-.98.31-1.79.32-.81.88-1.4.57-.59 1.36-.92.78-.32 1.74-.32.94 0 1.68.31.73.31 1.25.82l-.54.75q-.05.07-.12.12-.08.06-.21.06-.09 0-.19-.06-.09-.05-.21-.12-.11-.08-.26-.17t-.35-.16q-.2-.08-.46-.13t-.6-.05q-.58 0-1.07.21-.48.21-.83.6-.34.39-.54.96-.19.57-.19 1.29 0 .73.21 1.3t.56.96.83.6 1.04.21q.33 0 .59-.04.27-.03.5-.11.22-.08.42-.2.2-.13.4-.31.06-.05.13-.08.06-.04.13-.04m4.47-4.2q.69 0 1.25.22t.96.63.61 1q.22.58.22 1.31t-.22 1.32q-.21.59-.61 1-.4.42-.96.64t-1.25.22-1.25-.22-.96-.64q-.4-.41-.62-1t-.22-1.32.22-1.31q.22-.59.62-1t.96-.63 1.25-.22m0 5.2q.77 0 1.14-.52.37-.51.37-1.51 0-.99-.37-1.52-.37-.52-1.14-.52-.78 0-1.15.53-.38.52-.38 1.51t.38 1.51q.37.52 1.15.52m5.66 1.05h-1.49v-6.16h.91q.29 0 .38.27l.09.46q.17-.18.34-.33.18-.15.38-.26t.43-.17.51-.06q.58 0 .96.31.37.32.56.84.14-.31.36-.53.21-.21.47-.35t.55-.21q.29-.06.59-.06.51 0 .9.15.4.16.67.46t.41.73.14.99v3.92h-1.48v-3.92q0-.59-.26-.88-.26-.3-.76-.3-.22 0-.42.08-.19.08-.34.22-.15.15-.23.37-.09.22-.09.51v3.92h-1.48v-3.92q0-.62-.25-.9t-.73-.28q-.33 0-.6.16-.28.16-.52.43zm10.05-4.36v2.76q.25.31.55.44.29.12.64.12.34 0 .61-.12.27-.13.46-.39.18-.26.29-.65.1-.39.1-.93t-.09-.91q-.09-.38-.25-.61t-.39-.34-.53-.11q-.46 0-.78.19-.33.2-.61.55m-.2-1.53.12.57q.38-.42.86-.69.48-.26 1.12-.26.51 0 .93.21.41.21.72.61.3.4.46.98.17.59.17 1.34 0 .69-.19 1.28-.18.59-.53 1.02-.34.43-.83.68-.49.24-1.1.24-.51 0-.88-.16t-.65-.44v2.52H48v-8.17h.91q.29 0 .38.27m8.78 4.3v-1.04q-.64.03-1.08.11t-.7.21-.38.29q-.11.17-.11.37 0 .39.23.56t.6.17q.46 0 .79-.17.33-.16.65-.5m-3.13-3.23-.26-.48q1.06-.97 2.55-.97.54 0 .97.18.42.17.72.49.29.31.45.75.15.44.15.96v3.89h-.67q-.21 0-.33-.06-.11-.07-.18-.26l-.13-.44q-.23.21-.46.37-.22.16-.46.26-.24.11-.51.17t-.6.06q-.39 0-.72-.11-.33-.1-.57-.31t-.38-.53q-.13-.31-.13-.72 0-.24.08-.47t.26-.44q.17-.21.45-.39.29-.19.7-.33t.95-.22q.55-.09 1.25-.11v-.36q0-.62-.26-.91-.27-.3-.76-.3-.36 0-.6.08-.24.09-.42.19-.18.11-.32.19-.15.09-.33.09-.16 0-.27-.08-.1-.09-.17-.19m7.25-1.07.11.49q.18-.19.39-.35.21-.15.44-.27.23-.11.49-.17.27-.06.58-.06.5 0 .89.17t.65.48.4.74q.13.43.13.94v3.92h-1.48v-3.92q0-.56-.26-.87-.25-.31-.78-.31-.39 0-.72.17-.34.18-.64.48v4.45h-1.48v-6.16h.91q.28 0 .37.27m9.89-.27h1.19l-3.35 7.85q-.07.16-.17.24-.11.08-.33.08h-1.1l1.15-2.47-2.49-5.7h1.3q.18 0 .28.09.1.08.14.19l1.31 3.19q.07.16.11.33.05.16.09.33.05-.17.11-.34.05-.16.12-.32l1.23-3.19q.05-.12.16-.2t.25-.08m6.69 4.83h3.47v1.33h-5.08v-8.68h1.61zm7.11-4.92q.69 0 1.25.22t.96.63.61 1q.22.58.22 1.31t-.22 1.32q-.21.59-.61 1-.4.42-.96.64t-1.25.22-1.25-.22q-.57-.22-.96-.64-.4-.41-.62-1t-.22-1.32.22-1.31q.22-.59.62-1 .39-.41.96-.63.56-.22 1.25-.22m0 5.2q.77 0 1.14-.52.37-.51.37-1.51 0-.99-.37-1.52-.37-.52-1.14-.52-.78 0-1.15.53-.38.52-.38 1.51t.38 1.51q.37.52 1.15.52m6.42-2.18q.28 0 .48-.07.21-.08.34-.21.14-.13.21-.32.06-.18.06-.41 0-.45-.27-.72t-.82-.27q-.54 0-.82.27-.27.27-.27.72 0 .22.07.41.07.18.2.32.14.13.35.21.2.07.47.07m1.68 3.51q0-.18-.11-.3-.11-.11-.3-.18-.18-.06-.43-.09t-.53-.04q-.28-.02-.57-.03-.3-.01-.58-.05-.25.14-.4.33-.16.18-.16.43 0 .16.09.3.08.14.25.24.18.11.46.16.28.06.69.06.42 0 .72-.06.3-.07.49-.18.2-.11.29-.26t.09-.33m-.3-6.23h1.77v.56q0 .26-.32.32l-.55.1q.13.32.13.7 0 .45-.19.82-.18.37-.5.63-.33.26-.77.4t-.95.14q-.18 0-.35-.02-.16-.02-.33-.05-.28.18-.28.39 0 .19.17.28.17.08.45.12t.64.04q.36.01.74.04t.74.11q.36.07.64.24.28.16.45.44t.17.71q0 .41-.2.8-.2.38-.58.68t-.93.48q-.56.19-1.27.19-.69 0-1.21-.14-.52-.13-.86-.36-.34-.22-.51-.52-.17-.29-.17-.61 0-.43.27-.72.26-.29.71-.47-.24-.12-.39-.33-.14-.21-.14-.56 0-.13.05-.28t.15-.29q.1-.15.25-.28.15-.12.35-.23-.47-.25-.73-.67-.27-.42-.27-.98 0-.46.18-.83.19-.37.51-.63.33-.26.78-.4.44-.13.97-.13.4 0 .75.08.34.08.63.23m5.43-.3q.69 0 1.25.22t.96.63.61 1q.22.58.22 1.31t-.22 1.32q-.21.59-.61 1-.4.42-.96.64t-1.25.22-1.25-.22q-.57-.22-.97-.64-.39-.41-.61-1t-.22-1.32.22-1.31q.22-.59.61-1 .4-.41.97-.63.56-.22 1.25-.22m0 5.2q.77 0 1.14-.52.37-.51.37-1.51 0-.99-.37-1.52-.37-.52-1.14-.52-.78 0-1.15.53-.38.52-.38 1.51t.38 1.51q.37.52 1.15.52"/></svg>