<svg width="64" height="64" viewBox="0 0 64 64" fill="none" xmlns="http://www.w3.org/2000/svg">
<path d="M57.7658 45.2007C49.4513 61.2952 31.2345 68.4323 17.0774 61.1417C2.9204 53.8512 -1.8159 34.8939 6.49861 18.7993C14.8131 2.70481 33.0299 -4.43225 47.1869 2.85828C61.344 10.1488 66.0803 29.1061 57.7658 45.2007Z" fill="#ED1B2F"/>
<path d="M36.6875 33.875C36.6875 31.2905 34.5845 29.1875 32 29.1875C29.4155 29.1875 27.3125 31.2905 27.3125 33.875C27.3125 36.4595 29.4155 38.5625 32 38.5625C34.5845 38.5625 36.6875 36.4595 36.6875 33.875Z" fill="white"/>
<path d="M25.4375 45.125V48H38.5625V45.125C38.5625 41.5068 35.6182 38.5625 32 38.5625C28.3818 38.5625 25.4375 41.5068 25.4375 45.125Z" fill="white"/>
<path d="M46.0625 47C46.0625 44.4155 43.9595 42.3125 41.375 42.3125C40.8901 42.3125 40.4316 42.4077 39.9915 42.5449C40.2568 43.3633 40.4375 44.2195 40.4375 45.125V48H46.0625V47Z" fill="white"/>
<path d="M45.125 38.5625C45.125 36.4944 43.4431 34.8125 41.375 34.8125C39.3069 34.8125 37.625 36.4944 37.625 38.5625C37.625 38.6819 37.6492 38.7947 37.6602 38.9111C38.5847 39.7539 39.3303 40.7825 39.8093 41.959C40.2874 42.1804 40.8145 42.3125 41.375 42.3125C43.4431 42.3125 45.125 40.6306 45.125 38.5625Z" fill="white"/>
<path d="M26.3398 38.9111C26.3508 38.7947 26.375 38.6819 26.375 38.5625C26.375 36.4944 24.6931 34.8125 22.625 34.8125C20.5569 34.8125 18.875 36.4944 18.875 38.5625C18.875 40.6306 20.5569 42.3125 22.625 42.3125C23.1855 42.3125 23.7126 42.1804 24.1907 41.9592C24.6697 40.7825 25.4153 39.7539 26.3398 38.9111Z" fill="white"/>
<path d="M17.9375 47V48H23.5625V45.125C23.5625 44.2195 23.7432 43.3633 24.0085 42.5449C23.5684 42.4077 23.1099 42.3125 22.625 42.3125C20.0405 42.3125 17.9375 44.4155 17.9375 47Z" fill="white"/>
<path d="M30.5111 25.52C30.7045 25.7134 30.9668 25.8221 31.2404 25.8221C31.5138 25.8221 31.7761 25.7135 31.9695 25.52L36.3879 21.1017C36.7906 20.699 36.7906 20.046 36.3879 19.6433C35.9852 19.2406 35.3322 19.2406 34.9295 19.6433L31.2404 23.3325L29.7604 21.8525C29.3577 21.4497 28.7048 21.4498 28.3021 21.8525C27.8993 22.2552 27.8993 22.9082 28.3021 23.3109L30.5111 25.52Z" fill="white"/>
<path d="M19.5696 29.2817C19.9723 29.6844 20.6253 29.6844 21.028 29.2817L21.9557 28.354L22.8834 29.2817C23.2861 29.6844 23.9391 29.6844 24.3418 29.2817C24.7446 28.8791 24.7446 28.2261 24.3418 27.8233L23.4141 26.8956L24.3418 25.9679C24.7446 25.5652 24.7446 24.9123 24.3418 24.5095C23.9392 24.1069 23.2862 24.1069 22.8834 24.5095L21.9557 25.4372L21.028 24.5096C20.6254 24.1069 19.9724 24.1069 19.5696 24.5096C19.1669 24.9123 19.1669 25.5652 19.5696 25.968L20.4973 26.8957L19.5696 27.8233C19.1669 28.2261 19.1669 28.8791 19.5696 29.2817Z" fill="white"/>
<path d="M39.6317 29.2817C40.0344 29.6844 40.6873 29.6844 41.0901 29.2817L42.0178 28.354L42.9455 29.2817C43.3482 29.6844 44.0012 29.6844 44.4039 29.2817C44.8066 28.8791 44.8066 28.2261 44.4039 27.8233L43.4762 26.8956L44.4039 25.9679C44.8066 25.5652 44.8066 24.9123 44.4039 24.5095C44.0012 24.1069 43.3482 24.1069 42.9455 24.5095L42.0178 25.4372L41.0901 24.5095C40.6874 24.1069 40.0344 24.1069 39.6317 24.5095C39.229 24.9122 39.229 25.5652 39.6317 25.9679L40.5594 26.8956L39.6317 27.8233C39.2289 28.2261 39.2289 28.8791 39.6317 29.2817Z" fill="white"/>
</svg>
