<svg width="80" height="80" viewBox="0 0 80 80" fill="none" xmlns="http://www.w3.org/2000/svg">
<path d="M72.9155 53.7505C64.268 70.5156 45.3221 77.9498 30.5985 70.3558C15.8748 62.7615 10.949 43.0143 19.5962 26.2492C28.2435 9.48401 47.1894 2.04958 61.913 9.64388C76.6368 17.2382 81.5628 36.9854 72.9155 53.7505Z" fill="#FFF5F5"/>
<path d="M18.6106 24.458L18.0485 24.5072L17.4577 29.8525L20.1206 29.6195L18.6106 24.458Z" fill="#FFDFDF"/>
<path d="M40.7764 33.106C41.4767 34.5797 42.3389 35.7469 43.2655 36.7231C44.0085 35.6008 44.7424 34.2939 45.1762 32.721L40.7764 33.106Z" fill="#FFDFDF"/>
<path d="M47.002 17.9158L30.6917 19.3428L36.4801 46.3347C36.6379 47.4456 36.4247 48.5231 35.7682 49.4095L30.5848 56.4954L50.2269 54.777C52.3995 54.5869 54.0123 52.6649 53.8222 50.4922L51.2944 21.5987C51.1043 19.4261 49.1746 17.7257 47.002 17.9158ZM48.2735 32.4501L47.9228 32.4808C47.3853 34.9438 46.3643 36.9235 45.2622 38.5103C46.3041 39.3079 47.3991 39.9412 48.4957 40.6619C49.1009 41.0651 49.2656 41.883 48.8611 42.4896C48.4587 43.0952 47.6375 43.2595 47.0333 42.855C45.8419 42.0728 44.7313 41.428 43.6012 40.5596C42.6391 41.6111 41.7449 42.4313 40.7074 43.4085C40.1826 43.9117 39.3455 43.8925 38.844 43.366C38.3403 42.8388 38.3604 42.0048 38.8864 41.5026C39.8412 40.6024 40.722 39.7963 41.6097 38.8298C40.2487 37.4586 38.987 35.6786 38.03 33.3463L37.6792 33.377C36.9533 33.4405 36.3145 32.9045 36.251 32.1786C36.1875 31.4527 36.7235 30.8138 37.4494 30.7503L41.3895 30.4056L41.2746 29.0923C41.2111 28.3664 41.7471 27.7276 42.473 27.664C43.1989 27.6005 43.8377 28.1366 43.9013 28.8625L44.0162 30.1758L48.0437 29.8235C48.7697 29.7599 49.4085 30.296 49.472 31.0219C49.5355 31.7478 48.9995 32.3866 48.2735 32.4501Z" fill="#FFDFDF"/>
<path d="M27.096 15.1064C26.6789 13.1604 24.8677 11.8236 22.8849 11.9971L9.35604 13.1807C7.18342 13.3708 5.57064 15.2928 5.76072 17.4654L8.3039 46.5341C8.49398 48.7067 10.416 50.3195 12.5886 50.1294C20.4398 49.4425 26.0878 48.9484 33.3001 48.3174C33.645 47.8459 33.9421 47.5436 33.9057 46.9707C33.8965 46.8271 27.1263 15.2471 27.096 15.1064ZM23.7177 37.2193C23.0338 37.4236 22.2888 37.0332 22.0821 36.3246L20.8755 32.2002L17.1621 32.5251L16.69 36.7964C16.6111 37.5192 15.967 38.046 15.2346 37.9615C14.5116 37.8813 13.9894 37.2304 14.0695 36.5061L15.5471 23.1429C15.6165 22.5191 16.1165 22.0294 16.7424 21.9747L19.4566 21.7372C20.0825 21.6825 20.6599 22.0778 20.8367 22.6801L24.6124 35.5838C24.817 36.2831 24.4158 37.0148 23.7177 37.2193Z" fill="#FFDFDF"/>
<path d="M24.2236 51.7583L24.6067 53.5406C24.8625 54.7342 25.772 55.8947 27.1447 56.3937C29.394 53.436 28.0332 55.2254 31.1293 51.1541L24.2236 51.7583Z" fill="#FFDFDF"/>
<path d="M77.7706 50.1389L77.7033 50.1619C76.1948 50.6812 74.6457 51.0187 73.0721 51.1922C73.3278 53.3038 73.1392 55.4455 72.5196 57.4792C74.0393 57.9221 75.514 58.5204 76.9034 59.2907L76.9644 59.3249C77.7958 58.0111 78.3394 56.4877 78.4844 54.8302C78.6294 53.1728 78.3586 51.5782 77.7706 50.1389Z" fill="#FFDFDF"/>
<path d="M65.438 57.8908C65.8351 59.691 66.5976 61.4303 67.7295 63.0075C69.118 61.6508 70.1723 60.0704 70.8747 58.3664C69.0913 57.9695 67.2631 57.8108 65.438 57.8908Z" fill="#FFDFDF"/>
<path d="M71.8213 51.2785C70.8078 51.3316 69.7883 51.339 68.7597 51.249C67.7299 51.1589 66.7272 50.9733 65.7383 50.7463C65.1484 52.6546 64.9724 54.6669 65.2243 56.6489C67.2649 56.5451 69.3108 56.7241 71.3024 57.1807C71.8947 55.2726 72.072 53.2603 71.8213 51.2785Z" fill="#FFDFDF"/>
<path d="M69.3131 44.9092C67.9246 46.2659 66.8716 47.8463 66.1678 49.5515C67.9513 49.9472 69.7806 50.1072 71.6045 50.0271C71.2074 48.2269 70.4449 46.4864 69.3131 44.9092Z" fill="#FFDFDF"/>
<path d="M70.252 44.0718C71.5674 45.8733 72.4415 47.8733 72.8703 49.9423C74.3471 49.7854 75.8069 49.4777 77.2166 48.9975C75.782 46.4641 73.2724 44.5995 70.252 44.0718Z" fill="#FFDFDF"/>
<path d="M60.8205 47.5629C62.1268 48.2795 63.511 48.8373 64.9368 49.2481C65.7184 47.285 66.9264 45.4671 68.5348 43.9214C65.4685 43.9167 62.6746 45.3172 60.8205 47.5629Z" fill="#FFDFDF"/>
<path d="M64.5223 50.4454C63.0028 50 61.537 49.4 60.1429 48.6268L60.0806 48.5925C59.2492 49.9062 58.7056 51.4297 58.5606 53.0871C58.4156 54.7445 58.6864 56.3392 59.2769 57.7786L59.3442 57.7556C60.8451 57.237 62.4013 56.9039 63.9747 56.7328C63.7164 54.6223 63.9038 52.4805 64.5223 50.4454Z" fill="#FFDFDF"/>
<path d="M64.1732 57.9762C62.6965 58.1318 61.2366 58.4407 59.827 58.9197C61.2629 61.4532 63.7712 63.3177 66.7917 63.8454C65.4762 62.0439 64.6021 60.0439 64.1732 57.9762Z" fill="#FFDFDF"/>
<path d="M72.1072 58.6689C71.3268 60.6321 70.1175 62.4499 68.5092 63.9956C71.5755 64.0003 74.3707 62.5999 76.2234 60.3541C74.9185 59.6364 73.5343 59.0798 72.1072 58.6689Z" fill="#FFDFDF"/>
</svg>
