<svg xmlns="http://www.w3.org/2000/svg" width="600" height="400" viewBox="0 0 600 400"><rect width="100%" height="100%" fill="#FFFFFF"/><path d="M137.34 200.745h9.95q3.66 0 6.39-.92 2.72-.91 4.53-2.62 1.8-1.71 2.69-4.16.9-2.45.9-5.47 0-2.87-.9-5.2-.89-2.32-2.67-3.96-1.78-1.63-4.5-2.49-2.73-.87-6.44-.87h-9.95zm-13.31-35.99h23.26q7.18 0 12.43 1.69 5.24 1.68 8.66 4.7 3.41 3.02 5.07 7.23 1.66 4.2 1.66 9.2 0 5.2-1.73 9.53t-5.2 7.45q-3.46 3.12-8.69 4.85-5.22 1.73-12.2 1.73h-9.95v25.2h-13.31zm70.14 23.86.74 5.74q2.38-4.55 5.64-7.15 3.27-2.6 7.73-2.6 3.51 0 5.64 1.54l-.79 9.15q-.25.9-.72 1.27t-1.26.37q-.75 0-2.21-.25t-2.84-.25q-2.03 0-3.62.6-1.58.59-2.84 1.7-1.26 1.12-2.23 2.7-.96 1.59-1.81 3.62v31.28h-12.22v-50.79h7.17q1.89 0 2.63.67t.99 2.4m35.79 16.49h23.06q0-2.38-.66-4.48-.67-2.11-2.01-3.69-1.34-1.59-3.39-2.5-2.05-.92-4.78-.92-5.29 0-8.34 3.02-3.04 3.02-3.88 8.57m31.18 7.37h-31.43q.3 3.91 1.39 6.76 1.08 2.84 2.87 4.7 1.78 1.86 4.23 2.77 2.45.92 5.42.92t5.12-.7q2.16-.69 3.76-1.53 1.61-.84 2.83-1.53 1.21-.7 2.35-.7 1.53 0 2.27 1.14l3.52 4.46q-2.03 2.37-4.56 3.98-2.52 1.61-5.27 2.58-2.74.96-5.59 1.36-2.85.39-5.52.39-5.3 0-9.85-1.75-4.55-1.76-7.92-5.2t-5.3-8.52q-1.93-5.07-1.93-11.75 0-5.2 1.69-9.78 1.68-4.58 4.82-7.97t7.67-5.37 10.23-1.98q4.8 0 8.86 1.54 4.06 1.53 6.98 4.48 2.92 2.94 4.57 7.22 1.66 4.28 1.66 9.78 0 2.77-.59 3.74-.6.96-2.28.96m48.17-26.93h9.65l-20.15 50.79h-11.09l-20.14-50.79h10.09q1.39 0 2.31.65.91.64 1.21 1.63l9.8 27.13q.79 2.37 1.39 4.65.59 2.28 1.04 4.55.49-2.27 1.08-4.55.6-2.28 1.44-4.65l10-27.13q.35-.99 1.24-1.63.89-.65 2.13-.65m16.53 0h12.27v50.79h-12.27zm13.96-14.8q0 1.59-.65 2.97-.64 1.39-1.7 2.43-1.07 1.04-2.5 1.66-1.44.61-3.07.61-1.59 0-3-.61-1.41-.62-2.45-1.66t-1.66-2.43q-.61-1.38-.61-2.97 0-1.63.61-3.07.62-1.43 1.66-2.47t2.45-1.66 3-.62q1.63 0 3.07.62 1.43.62 2.5 1.66 1.06 1.04 1.7 2.47.65 1.44.65 3.07m20.44 34.36h23.07q0-2.38-.67-4.48-.67-2.11-2.01-3.69-1.33-1.59-3.39-2.5-2.05-.92-4.77-.92-5.3 0-8.34 3.02-3.05 3.02-3.89 8.57m31.19 7.37h-31.44q.3 3.91 1.39 6.76 1.09 2.84 2.87 4.7t4.23 2.77q2.45.92 5.42.92t5.13-.7q2.15-.69 3.76-1.53t2.82-1.53q1.21-.7 2.35-.7 1.54 0 2.28 1.14l3.51 4.46q-2.03 2.37-4.55 3.98-2.53 1.61-5.27 2.58-2.75.96-5.6 1.36-2.84.39-5.52.39-5.29 0-9.85-1.75-4.55-1.76-7.92-5.2-3.36-3.44-5.29-8.52-1.93-5.07-1.93-11.75 0-5.2 1.68-9.78t4.83-7.97q3.14-3.39 7.67-5.37t10.22-1.98q4.8 0 8.86 1.54 4.06 1.53 6.98 4.48 2.92 2.94 4.58 7.22t1.66 9.78q0 2.77-.6 3.74-.59.96-2.27.96m75.24-26.93h9.3l-16.14 50.79h-9.8q-1.68 0-2.32-2.18l-9.11-29.35q-.45-1.49-.82-2.95t-.62-2.94q-.29 1.48-.66 2.99-.38 1.51-.82 3l-9.26 29.25q-.59 2.18-2.62 2.18h-9.41l-16.08-50.79h9.75q1.33 0 2.27.65.95.64 1.24 1.63l7.28 27.13q.54 2.22.96 4.35t.72 4.26q.55-2.13 1.17-4.26.61-2.13 1.31-4.35l8.41-27.23q.3-.99 1.17-1.63.86-.65 2.1-.65h5.39q1.29 0 2.21.65.91.64 1.21 1.63l8.17 27.23q.64 2.22 1.21 4.38.57 2.15 1.11 4.28.65-4.21 1.84-8.66l7.47-27.13q.35-.99 1.24-1.63.89-.65 2.13-.65"/></svg>