<svg width="982" height="418" viewBox="0 0 982 418" fill="none" xmlns="http://www.w3.org/2000/svg">
<g clip-path="url(#clip0_694_1032)">
<g opacity="0.5">
<path fill-rule="evenodd" clip-rule="evenodd" d="M245.007 553.841C229.979 514.065 254.815 471.89 300.469 459.659C346.124 447.429 395.343 469.768 410.371 509.543C425.399 549.319 400.564 591.494 354.91 603.725C309.255 615.955 260.036 593.617 245.007 553.841Z" stroke="#ED1B2F" stroke-width="0.2" stroke-miterlimit="10"/>
<path fill-rule="evenodd" clip-rule="evenodd" d="M236.794 553.837C219.125 507.084 248.325 457.512 301.987 443.133C355.653 428.759 413.502 455.013 431.165 501.769C448.835 548.522 419.634 598.095 365.972 612.474C312.306 626.847 254.458 600.593 236.794 553.837Z" stroke="#ED1B2F" stroke-width="0.2" stroke-miterlimit="10"/>
<path fill-rule="evenodd" clip-rule="evenodd" d="M228.579 553.843C208.277 500.116 241.824 443.14 303.501 426.624C365.175 410.103 431.655 440.277 451.96 494.01C472.262 547.737 438.712 604.707 377.038 621.229C315.365 637.75 248.884 607.576 228.579 553.843Z" stroke="#ED1B2F" stroke-width="0.2" stroke-miterlimit="10"/>
<path fill-rule="evenodd" clip-rule="evenodd" d="M220.36 553.843C197.423 493.135 235.328 428.765 305.007 410.104C374.692 391.44 449.802 425.529 472.739 486.237C495.676 546.945 457.776 611.311 388.091 629.975C318.416 648.642 243.297 614.55 220.36 553.843Z" stroke="#ED1B2F" stroke-width="0.2" stroke-miterlimit="10"/>
<path fill-rule="evenodd" clip-rule="evenodd" d="M212.144 553.848C186.569 486.17 228.831 414.4 306.517 393.59C384.204 372.781 467.956 410.793 493.525 478.475C519.1 546.154 476.838 617.924 399.152 638.733C321.465 659.543 237.723 621.533 212.144 553.848Z" stroke="#ED1B2F" stroke-width="0.2" stroke-miterlimit="10"/>
<path d="M203.925 553.848C175.715 479.189 222.329 400.029 308.024 377.071C393.718 354.113 486.102 396.046 514.309 470.699C542.52 545.358 495.905 624.518 410.211 647.477C324.516 670.435 232.142 628.504 203.931 553.845" stroke="#ED1B2F" stroke-width="0.2" stroke-miterlimit="10"/>
<path d="M195.71 553.854C164.861 472.224 215.837 385.66 309.537 360.563C403.243 335.462 504.25 381.313 535.098 462.943C565.941 544.577 514.971 631.137 421.265 656.238C327.565 681.336 226.556 635.494 195.704 553.857" stroke="#ED1B2F" stroke-width="0.2" stroke-miterlimit="10"/>
<path fill-rule="evenodd" clip-rule="evenodd" d="M187.491 553.854C154.007 465.243 209.336 371.289 311.05 344.039C412.764 316.79 522.403 366.562 555.887 455.172C589.371 543.783 534.042 637.738 432.328 664.987C330.62 692.233 220.978 642.47 187.491 553.854Z" stroke="#ED1B2F" stroke-width="0.2" stroke-miterlimit="10"/>
<path fill-rule="evenodd" clip-rule="evenodd" d="M179.281 553.856C143.165 458.271 202.85 356.917 312.566 327.522C422.285 298.133 540.559 351.816 576.675 447.402C612.791 542.987 553.106 644.341 443.39 673.736C333.674 703.131 215.401 649.447 179.281 553.856Z" stroke="#ED1B2F" stroke-width="0.2" stroke-miterlimit="10"/>
<path d="M171.062 553.856C132.305 451.294 196.345 342.539 314.076 311.008C431.803 279.471 558.709 337.075 597.466 439.637C636.224 542.199 572.18 650.948 454.453 682.485C336.732 714.019 209.823 656.424 171.068 553.853" stroke="#ED1B2F" stroke-width="0.2" stroke-miterlimit="10"/>
<path d="M162.847 553.862C121.454 444.319 189.853 328.171 315.585 294.494C441.324 260.814 576.859 322.333 618.248 431.87C659.641 541.413 591.238 657.555 465.503 691.241C339.775 724.923 204.23 663.402 162.841 553.865" stroke="#ED1B2F" stroke-width="0.2" stroke-miterlimit="10"/>
<path d="M154.628 553.861C110.597 437.348 183.352 313.799 317.092 277.974C450.838 242.145 595.005 307.585 639.03 424.102C683.055 540.62 610.306 664.165 476.56 699.993C342.82 735.818 198.647 670.382 154.622 553.865" stroke="#ED1B2F" stroke-width="0.2" stroke-miterlimit="10"/>
<path d="M146.412 553.867C99.7455 430.373 176.86 299.43 318.608 261.457C460.356 223.483 613.161 292.84 659.828 416.334C706.494 539.828 629.38 670.771 487.632 708.745C345.89 746.715 193.078 677.362 146.418 553.864" stroke="#ED1B2F" stroke-width="0.2" stroke-miterlimit="10"/>
<path fill-rule="evenodd" clip-rule="evenodd" d="M138.197 553.873C88.8981 423.404 170.362 285.065 320.121 244.949C469.881 204.832 631.315 278.104 680.614 408.573C729.912 539.042 648.448 677.381 498.689 717.497C348.936 757.61 187.501 684.339 138.197 553.873Z" stroke="#ED1B2F" stroke-width="0.2" stroke-miterlimit="10"/>
<path fill-rule="evenodd" clip-rule="evenodd" d="M129.983 553.87C78.0434 416.424 163.872 270.687 321.633 228.425C479.401 186.16 649.471 263.359 701.402 400.802C753.335 538.251 667.513 683.985 509.751 726.246C351.99 768.508 181.923 691.315 129.983 553.87Z" stroke="#ED1B2F" stroke-width="0.2" stroke-miterlimit="10"/>
<path d="M121.768 553.875C67.1958 409.455 157.374 256.322 323.143 211.911C488.922 167.504 667.621 248.617 722.184 393.035C776.756 537.455 686.577 690.588 520.802 735.002C355.039 779.409 176.334 698.299 121.762 553.879" stroke="#ED1B2F" stroke-width="0.2" stroke-miterlimit="10"/>
<path fill-rule="evenodd" clip-rule="evenodd" d="M113.549 553.875C56.3356 402.478 150.876 241.941 324.654 195.397C498.434 148.844 685.766 233.878 742.976 385.27C800.183 536.671 705.645 697.198 531.865 743.751C358.09 790.3 170.756 705.276 113.549 553.875Z" stroke="#ED1B2F" stroke-width="0.2" stroke-miterlimit="10"/>
<path fill-rule="evenodd" clip-rule="evenodd" d="M105.333 553.881C45.4877 395.509 144.377 227.576 326.169 178.88C507.961 130.185 703.921 219.133 763.767 377.505C823.612 535.877 724.719 703.804 542.931 752.506C361.148 801.204 165.182 712.259 105.333 553.881Z" stroke="#ED1B2F" stroke-width="0.2" stroke-miterlimit="10"/>
<path fill-rule="evenodd" clip-rule="evenodd" d="M97.1143 553.881C34.6334 388.528 137.882 213.201 327.676 162.36C517.476 111.516 722.068 204.385 784.546 369.732C847.026 535.084 743.774 710.405 553.984 761.252C364.19 812.093 159.595 719.233 97.1143 553.881Z" stroke="#ED1B2F" stroke-width="0.2" stroke-miterlimit="10"/>
<path fill-rule="evenodd" clip-rule="evenodd" d="M88.8987 553.886C23.7799 381.563 131.384 198.836 329.189 145.852C527 92.8654 740.222 189.649 805.335 361.976C870.447 534.303 762.849 717.027 565.044 770.011C367.249 822.996 154.015 726.219 88.8987 553.886Z" stroke="#ED1B2F" stroke-width="0.2" stroke-miterlimit="10"/>
<path fill-rule="evenodd" clip-rule="evenodd" d="M80.6797 553.886C12.9254 374.582 124.889 184.461 330.696 129.332C536.508 74.2002 758.368 174.902 826.119 354.2C893.874 533.503 781.91 723.625 576.097 778.757C370.294 833.891 148.428 733.193 80.6797 553.886Z" stroke="#ED1B2F" stroke-width="0.2" stroke-miterlimit="10"/>
<path d="M72.4701 553.889C2.07777 367.614 118.397 170.092 332.211 112.815C546.032 55.5343 776.524 160.156 846.911 346.435C917.297 532.713 800.984 730.231 587.163 787.512C373.349 844.789 142.86 740.173 72.4641 553.892" stroke="#ED1B2F" stroke-width="0.2" stroke-miterlimit="10"/>
<path fill-rule="evenodd" clip-rule="evenodd" d="M64.2513 553.888C-8.7765 360.633 111.898 155.711 333.724 96.2917C555.556 36.8684 794.677 145.405 867.699 338.664C940.727 531.92 820.049 736.835 598.226 796.261C376.41 855.683 137.283 747.15 64.2513 553.888Z" stroke="#ED1B2F" stroke-width="0.2" stroke-miterlimit="10"/>
<path fill-rule="evenodd" clip-rule="evenodd" d="M56.0356 553.894C-19.6242 353.664 105.4 141.346 335.237 79.7835C565.077 18.2116 812.831 130.669 888.491 330.899C964.15 531.129 839.123 743.441 609.289 805.01C379.455 866.578 131.699 754.13 56.0356 553.894Z" stroke="#ED1B2F" stroke-width="0.2" stroke-miterlimit="10"/>
<path fill-rule="evenodd" clip-rule="evenodd" d="M47.8167 553.894C-30.4846 346.687 98.9047 126.971 336.744 63.2635C574.589 -0.447562 830.981 115.927 909.273 323.132C987.568 530.342 858.181 750.048 620.346 813.762C382.51 877.476 126.115 761.11 47.8167 553.894Z" stroke="#ED1B2F" stroke-width="0.2" stroke-miterlimit="10"/>
<path fill-rule="evenodd" clip-rule="evenodd" d="M39.601 553.9C-41.3323 339.718 92.4066 112.606 338.254 46.7498C584.107 -19.11 849.125 101.189 930.055 315.365C1010.99 529.546 877.246 756.652 631.396 822.518C385.558 888.377 120.538 768.087 39.601 553.9Z" stroke="#ED1B2F" stroke-width="0.2" stroke-miterlimit="10"/>
<path fill-rule="evenodd" clip-rule="evenodd" d="M31.3856 553.905C-52.1892 332.747 85.9148 98.2373 339.767 30.2418C593.632 -37.7606 867.279 86.4533 950.844 307.609C1034.41 528.771 896.317 763.268 642.456 831.276C388.61 899.268 114.954 775.067 31.3856 553.905Z" stroke="#ED1B2F" stroke-width="0.2" stroke-miterlimit="10"/>
</g>
</g>
<defs>
<clipPath id="clip0_694_1032">
<rect width="982" height="418" fill="white"/>
</clipPath>
</defs>
</svg>
