<svg width="64" height="64" viewBox="0 0 64 64" fill="none" xmlns="http://www.w3.org/2000/svg">
<path d="M57.7658 45.2007C49.4513 61.2952 31.2345 68.4323 17.0774 61.1417C2.9204 53.8512 -1.8159 34.8939 6.49861 18.7993C14.8131 2.70481 33.0299 -4.43225 47.1869 2.85828C61.344 10.1488 66.0803 29.1061 57.7658 45.2007Z" fill="#ED1B2F"/>
<path d="M41.5111 26.52C41.7045 26.7134 41.9668 26.8221 42.2404 26.8221C42.5138 26.8221 42.7761 26.7135 42.9695 26.52L47.3879 22.1017C47.7906 21.699 47.7906 21.046 47.3879 20.6433C46.9852 20.2406 46.3322 20.2406 45.9295 20.6433L42.2404 24.3325L40.7604 22.8525C40.3577 22.4497 39.7048 22.4498 39.3021 22.8525C38.8993 23.2552 38.8993 23.9082 39.3021 24.3109L41.5111 26.52Z" fill="white"/>
<path d="M41.5111 36.1787C41.7045 36.3721 41.9668 36.4808 42.2404 36.4808C42.5138 36.4808 42.7761 36.3722 42.9695 36.1787L47.3879 31.7604C47.7906 31.3577 47.7906 30.7047 47.3879 30.302C46.9852 29.8993 46.3322 29.8993 45.9295 30.302L42.2404 33.9912L40.7604 32.5112C40.3577 32.1084 39.7048 32.1085 39.3021 32.5112C38.8993 32.9139 38.8993 33.5669 39.3021 33.9696L41.5111 36.1787Z" fill="white"/>
<path d="M41.5111 46.1787C41.7045 46.3721 41.9668 46.4808 42.2404 46.4808C42.5138 46.4808 42.7761 46.3722 42.9695 46.1787L47.3879 41.7604C47.7906 41.3577 47.7906 40.7047 47.3879 40.302C46.9852 39.8993 46.3322 39.8993 45.9295 40.302L42.2404 43.9912L40.7604 42.5112C40.3577 42.1084 39.7048 42.1085 39.3021 42.5112C38.8993 42.9139 38.8993 43.5669 39.3021 43.9696L41.5111 46.1787Z" fill="white"/>
<path d="M21.4077 28.6838C21.5503 30.5568 22.2953 29.7495 22.449 30.5702C22.7045 31.9346 23.9124 32.9214 24.6644 33.2623C25.103 33.461 25.5548 33.5608 26.0298 33.5687V33.5691C26.0314 33.5691 26.0331 33.5689 26.0347 33.5689C26.0363 33.5689 26.038 33.5691 26.0396 33.5691V33.5687C26.5146 33.5608 26.9663 33.4611 27.4051 33.2623C28.157 32.9214 29.3649 31.9346 29.6205 30.5702C29.7741 29.7495 30.5191 30.5568 30.6617 28.6838C30.6617 27.9373 30.255 27.7516 30.255 27.7516C30.255 27.7516 30.4617 26.6467 30.5427 25.7965C30.643 24.737 29.9242 22 26.0901 22C26.0733 22 26.0578 22.0009 26.0414 22.0011C26.0408 22.0011 26.0403 22.0011 26.0397 22.0011V22.0009C26.038 22.0009 26.0364 22.001 26.0347 22.001C26.0331 22.001 26.0315 22.0009 26.0298 22.0009V22.0011C26.0292 22.0011 26.0287 22.0011 26.0281 22.0011C26.0117 22.0009 25.9962 22 25.9794 22C22.1453 22 21.4265 24.737 21.5268 25.7966C21.6077 26.6467 21.8145 27.7516 21.8145 27.7516C21.8145 27.7516 21.4077 27.9373 21.4077 28.6838Z" fill="white"/>
<path d="M34.7323 37.8787C32.7984 36.8949 29.9953 35.6661 29.8608 35.6227C29.8593 35.6221 29.8582 35.6221 29.8567 35.6216C29.778 35.5936 29.6935 35.578 29.6051 35.578C29.2765 35.578 28.9978 35.7885 28.8944 36.0818C28.8939 36.0814 28.8933 36.0812 28.8928 36.0809C28.3936 37.2837 27.4767 39.4279 26.9074 40.4618L26.7703 37.5632C26.7703 37.5632 27.6253 35.7485 27.7189 35.5823C27.9392 35.1926 27.7408 34.8608 27.3277 34.8608C27.1228 34.8608 26.6103 34.8608 26.0969 34.8608C26.0963 34.8608 26.0958 34.8608 26.0952 34.8608C26.0919 34.8608 26.0886 34.8608 26.0853 34.8608C26.0847 34.8608 26.0842 34.8608 26.0836 34.8608C26.0765 34.8608 26.0695 34.8608 26.0625 34.8608C26.0554 34.8608 26.0484 34.8608 26.0413 34.8608C26.0407 34.8608 26.0402 34.8608 26.0396 34.8608C26.0363 34.8608 26.033 34.8608 26.0297 34.8608C26.0291 34.8608 26.0286 34.8608 26.028 34.8608C25.5147 34.8608 25.0022 34.8608 24.7972 34.8608C24.3842 34.8608 24.1858 35.1926 24.406 35.5823C24.4997 35.7485 25.3546 37.5632 25.3546 37.5632L25.2175 40.4618C24.6482 39.4279 23.7313 37.2839 23.2322 36.0809C23.2316 36.0812 23.2311 36.0814 23.2305 36.0818C23.1271 35.7886 22.8484 35.578 22.5199 35.578C22.4315 35.578 22.3469 35.5936 22.2683 35.6216C22.2668 35.6221 22.2657 35.6223 22.2642 35.6227C22.1297 35.6661 19.3266 36.8949 17.3927 37.8787C16.5242 38.3206 16 38.8701 16 39.4484C16 41.3603 16 44.0003 16 44.0003H26.021H26.0297H26.0345H26.0348H26.0396H26.0484H26.0625H26.0766H26.0854H26.0902H26.0904H26.0952H26.104H36.125C36.125 44.0003 36.125 41.3603 36.125 39.4484C36.1249 38.8701 35.6008 38.3206 34.7323 37.8787Z" fill="white"/>
</svg>
